<svg xmlns="http://www.w3.org/2000/svg" viewBox="0 0 48 48"><defs><style>.cls-1{fill:#201602;}</style></defs><title>Asset 20ldpi</title><g id="Layer_2" data-name="Layer 2"><g id="layer_1-2" data-name="layer 1"><path class="cls-1" d="M41,48a1,1,0,0,1-.55-.17L31.7,42H19a3,3,0,0,1-3-3V34h2v5a1,1,0,0,0,1,1H32a1,1,0,0,1,.55.17l7.45,5V41a1,1,0,0,1,1-1h4a1,1,0,0,0,1-1V13a1,1,0,0,0-1-1H34V10H45a3,3,0,0,1,3,3V39a3,3,0,0,1-3,3H42v5a1,1,0,0,1-.53.88A1,1,0,0,1,41,48Z"/><path class="cls-1" d="M7,38a1,1,0,0,1-.47-.12A1,1,0,0,1,6,37V32H3a3,3,0,0,1-3-3V3A3,3,0,0,1,3,0H29a3,3,0,0,1,3,3V29a3,3,0,0,1-3,3H16.3L7.55,37.83A1,1,0,0,1,7,38ZM3,2A1,1,0,0,0,2,3V29a1,1,0,0,0,1,1H7a1,1,0,0,1,1,1v4.13l7.45-5A1,1,0,0,1,16,30H29a1,1,0,0,0,1-1V3a1,1,0,0,0-1-1Z"/><rect class="cls-1" x="34" y="20" width="10" height="2"/><rect class="cls-1" x="34" y="15" width="10" height="2"/><rect class="cls-1" x="34" y="25" width="6" height="2"/><rect class="cls-1" x="34" y="30" width="10" height="2"/><rect class="cls-1" x="20" y="35" width="20" height="2"/><path class="cls-1" d="M16,25a5,5,0,0,1-5-5h2a3,3,0,1,0,3-3,5,5,0,1,1,5-5H19a3,3,0,1,0-3,3,5,5,0,0,1,0,10Z"/><rect class="cls-1" x="15" y="24" width="2" height="4"/><rect class="cls-1" x="15" y="4" width="2" height="4"/><rect class="cls-1" x="24" y="15" width="2" height="2"/><rect class="cls-1" x="6" y="15" width="2" height="2"/></g></g></svg>