<?xml version="1.0" encoding="UTF-8"?>
<!DOCTYPE svg PUBLIC "-//W3C//DTD SVG 1.1//EN" "http://www.w3.org/Graphics/SVG/1.1/DTD/svg11.dtd">
<!-- Creator: CorelDRAW -->
<svg xmlns="http://www.w3.org/2000/svg" xml:space="preserve" width="2048px" height="2048px" style="shape-rendering:geometricPrecision; text-rendering:geometricPrecision; image-rendering:optimizeQuality; fill-rule:evenodd; clip-rule:evenodd"
viewBox="0 0 2048 2048"
 xmlns:xlink="http://www.w3.org/1999/xlink">
 <defs>
  <style type="text/css">
   <![CDATA[
    .fil2 {fill:none}
    .fil1 {fill:#424242}
    .fil0 {fill:#424242;fill-rule:nonzero}
   ]]>
  </style>
 </defs>
 <g id="Layer_x0020_1">
  <metadata id="CorelCorpID_0Corel-Layer"/>
  <g id="_244126072">
   <path id="_244126840" class="fil0" d="M255.998 695.305l0 -204.814c0,-17.6728 14.328,-32.0008 32.0008,-32.0008l1472 0c17.6728,0 32.0008,14.328 32.0008,32.0008l0 204.814 -1536 0zm1026.79 -150.408c-17.6728,0 -32.0008,14.328 -32.0008,32.0008 0,17.6728 14.328,32.0008 32.0008,32.0008l16.5225 0c17.6728,0 32.0008,-14.328 32.0008,-32.0008 0,-17.6728 -14.328,-32.0008 -32.0008,-32.0008l-16.5225 0zm165.716 0c-17.6728,0 -32.0008,14.328 -32.0008,32.0008 0,17.6728 14.328,32.0008 32.0008,32.0008l16.5225 0c17.6728,0 32.0008,-14.328 32.0008,-32.0008 0,-17.6728 -14.328,-32.0008 -32.0008,-32.0008l-16.5225 0zm165.717 0c-17.6728,0 -32.0008,14.328 -32.0008,32.0008 0,17.6728 14.328,32.0008 32.0008,32.0008l16.5225 0c17.6728,0 32.0008,-14.328 32.0008,-32.0008 0,-17.6728 -14.328,-32.0008 -32.0008,-32.0008l-16.5225 0z"/>
   <path id="_244127176" class="fil1" d="M1792 1557.51l0 -830.203 -1536 0 0 830.203c0,17.6728 14.328,32.0008 32.0008,32.0008l1472 0c17.6728,0 32.0008,-14.328 32.0008,-32.0008zm-855.762 -486.863c22.4599,-22.4599 53.4898,-36.3544 87.7607,-36.3544 34.2709,0 65.3008,13.8945 87.7607,36.3544 22.461,22.4599 36.3544,53.4898 36.3544,87.7607 0,34.2709 -13.8933,65.3008 -36.3544,87.7607 -22.4599,22.461 -53.4898,36.3544 -87.7607,36.3544 -34.2709,0 -65.3008,-13.8933 -87.7607,-36.3544 -22.461,-22.4599 -36.3544,-53.4898 -36.3544,-87.7607 0,-34.2709 13.8933,-65.3008 36.3544,-87.7607zm514.978 78.8481c-35.2961,-87.9768 -110.888,-150.5 -203.669,-187.721 -68.3575,-27.4229 -146.067,-41.1355 -223.547,-41.1355 -77.4804,0 -155.19,13.7126 -223.547,41.1355 -92.1615,36.9733 -167.354,98.9139 -202.949,185.964 -2.9315,5.91142 -3.42874,13.0004 -0.778347,19.6063l0.0578741 -0.0236221c35.2961,87.9768 110.888,150.5 203.669,187.721 68.3575,27.4229 146.067,41.1355 223.547,41.1355 77.4804,0 155.19,-13.7126 223.547,-41.1355 92.1615,-36.9733 167.354,-98.9139 202.949,-185.964 2.9315,-5.91142 3.42874,-13.0004 0.778347,-19.6063l-0.0578741 0.0236221z"/>
  </g>
 </g>
 <rect class="fil2" width="2048" height="2048"/>
</svg>
